<svg width="562" height="527" xmlns="http://www.w3.org/2000/svg" preserveAspectRatio="xMidYMid meet">

 <g>
  <title>background</title>
  <rect fill="none" id="canvas_background" height="402" width="582" y="-1" x="-1"/>
 </g>
 <g>
  <title>Layer 1</title>
  <rect id="svg_16" height="22.340405" width="154.255175" y="240.372116" x="198.350866" stroke-width="1.5" stroke="#ffffff" fill="#fff"/>
  <g id="svg_1" fill="#000000" transform="translate(0,527) scale(0.10000000149011612,-0.10000000149011612) ">
   <path id="svg_2" d="m2040,3821c0,-16 9,-21 48,-26c122,-17 162,-41 181,-111c7,-25 11,-176 11,-411l0,-373l58,-1c155,-4 195,-4 203,1c4,3 9,181 11,395c4,523 -17,488 301,493c230,4 312,-5 387,-43c104,-53 150,-150 180,-380c18,-138 17,-135 48,-135l27,0l1,248c0,136 4,273 8,305l7,57l-735,0c-722,0 -736,0 -736,-19z"/>
   <path id="svg_3" d="m3045,3178c-2,-7 -9,-48 -14,-90c-6,-42 -20,-101 -31,-130c-11,-29 -16,-55 -12,-59c4,-4 30,-5 59,-2l51,5l4,137c2,85 0,139 -7,143c-16,12 -45,9 -50,-4z"/>
   <path id="svg_4" d="m2014,2857c-9,-25 1,-202 11,-197c6,3 10,19 11,36c2,53 10,63 56,67l43,4l-48,1l-48,2l3,43c3,42 3,42 48,48l45,6l-58,1c-40,2 -59,-2 -63,-11z"/>
   <path id="svg_5" d="m2590,2861c24,-6 25,-11 28,-86c2,-92 8,-125 22,-125c5,0 11,46 12,102l3,103l30,6c19,4 2,7 -45,7c-45,0 -65,-3 -50,-7z"/>
   <path id="svg_6" d="m3140,2760c0,-67 4,-110 10,-110c6,0 10,20 10,45c0,38 3,45 20,45c11,0 31,-18 50,-45c38,-56 60,-60 25,-5c-30,48 -30,45 -5,70c20,20 26,55 12,77c-10,16 -57,33 -93,33l-29,0l0,-110zm88,84c44,-31 18,-94 -39,-94c-28,0 -29,2 -29,48c0,27 3,52 7,55c11,12 37,8 61,-9z"/>
   <path id="svg_7" d="m3395,2858c-2,-7 -3,-56 -2,-108l2,-95l70,-1c62,-1 63,0 12,3l-58,4l1,52c3,104 0,157 -10,157c-6,0 -13,-6 -15,-12z"/>
   <path id="svg_8" d="m3488,2863c6,-2 18,-2 25,0c6,3 1,5 -13,5c-14,0 -19,-2 -12,-5z"/>
   <path id="svg_9" d="m2262,2779c3,-75 5,-83 32,-106c24,-20 36,-24 65,-19c56,9 71,35 71,127c0,46 -4,79 -10,79c-6,0 -10,-33 -10,-80c0,-67 -3,-83 -20,-100c-25,-25 -51,-25 -80,-2c-20,16 -24,31 -28,100c-2,45 -9,82 -14,82c-6,0 -9,-32 -6,-81z"/>
   <path id="svg_10" d="m2840,2777c0,-95 10,-113 71,-122l34,-5l-30,10c-45,15 -55,36 -55,116c0,40 -4,76 -10,79c-6,4 -10,-24 -10,-78z"/>
   <path id="svg_11" d="m2989,2782c-3,-61 -9,-85 -23,-101c-11,-12 -15,-21 -9,-21c5,0 18,9 29,21c21,23 34,153 16,171c-6,6 -11,-16 -13,-70z"/>
   <path id="svg_12" d="m3478,2763c6,-2 18,-2 25,0c6,3 1,5 -13,5c-14,0 -19,-2 -12,-5z"/>
   <path id="svg_13" d="m2285,2588c-3,-7 -6,-161 -7,-343c-3,-294 -5,-334 -21,-362c-25,-46 -52,-61 -140,-75c-70,-10 -78,-14 -75,-32c3,-21 8,-21 399,-24c364,-2 397,-1 403,15c10,25 -1,29 -99,42c-104,14 -145,35 -171,89c-17,33 -19,69 -22,370l-3,332l-130,0c-95,0 -131,-3 -134,-12z"/>
   <path id="svg_14" d="m3024,2573c12,-61 26,-150 28,-178c3,-26 7,-30 36,-33l32,-3l-5,88c-10,155 -10,153 -56,153c-39,0 -40,-1 -35,-27z"/>
  </g>
 </g>
</svg>